<svg width="21" height="21" viewBox="0 0 21 21" fill="none" xmlns="http://www.w3.org/2000/svg">
<path d="M3.27779 0H18.3912C19.8265 0 21.0008 1.06263 21.0008 2.60961V17.7234C21.0008 19.2704 19.8265 20.3331 18.3912 20.3331H3.27779C1.84209 20.3331 0.667969 19.2704 0.667969 17.7234V2.60961C0.667969 1.06263 1.84209 0 3.27779 0ZM15.4797 2.25909C14.9762 2.25909 14.5647 2.67078 14.5647 3.17454V5.36557C14.5647 5.86912 14.9762 6.28103 15.4797 6.28103H17.7778C18.2814 6.28103 18.6933 5.86912 18.6933 5.36557V3.17454C18.6933 2.67078 18.2814 2.25909 17.7778 2.25909H15.4797ZM18.7029 8.59878H16.9133C17.0826 9.1516 17.1743 9.7372 17.1743 10.343C17.1743 13.7251 14.3442 16.4667 10.8538 16.4667C7.36361 16.4667 4.53395 13.7251 4.53395 10.343C4.53395 9.73678 4.6254 9.15139 4.79492 8.59878H2.92748V17.1877C2.92748 17.6322 3.29115 17.9961 3.73583 17.9961H17.895C18.3396 17.9961 18.7033 17.6324 18.7033 17.1877V8.59878H18.7029ZM10.8536 6.16558C8.59848 6.16558 6.77008 7.93698 6.77008 10.1224C6.77008 12.3078 8.59848 14.0792 10.8536 14.0792C13.1089 14.0792 14.9375 12.3078 14.9375 10.1224C14.9375 7.93698 13.1091 6.16558 10.8536 6.16558Z" fill="#393F47"/>
</svg>
