<svg width="21" height="21" viewBox="0 0 21 21" fill="none" xmlns="http://www.w3.org/2000/svg">
<path d="M19.7855 10.4785C19.5391 9.58152 18.6632 8.91983 17.6089 8.82134C15.113 8.58777 12.5855 8.58667 10.0703 8.58777C7.55412 8.58667 5.02713 8.58777 2.5304 8.82134C1.47668 8.92005 0.601299 9.58174 0.355098 10.4785C0.00420855 11.7559 0 13.1502 0 14.4654C0 15.7807 3.13563e-08 17.1748 0.350889 18.4521C0.597091 19.3489 1.47247 20.0106 2.52672 20.1093C5.02293 20.3431 7.54991 20.344 10.0658 20.3431C12.582 20.3442 15.1085 20.3431 17.6055 20.1093C18.6592 20.0106 19.5351 19.3489 19.7813 18.4521C20.1319 17.1748 20.1338 15.7807 20.1338 14.4654C20.1335 13.15 20.1362 11.7559 19.7855 10.4785ZM5.74285 11.4685H4.28564V17.955H2.93206V11.4685H1.50141V10.406H5.74285V11.4685ZM9.4193 17.9552H8.20171V17.3416C7.71799 17.8061 7.25873 18.0326 6.81131 18.0326C6.41912 18.0326 6.14924 17.8995 6.02746 17.6146C5.96117 17.4445 5.92014 17.1752 5.92014 16.7782V12.3303H7.13668V16.4717C7.13668 16.7105 7.13668 16.8346 7.14773 16.8681C7.17692 17.0263 7.26925 17.1065 7.43233 17.1065C7.67643 17.1065 7.93157 16.9489 8.20145 16.6292V12.3303H9.41904L9.4193 17.9552ZM14.0416 16.267C14.0416 16.7872 13.9998 17.162 13.9185 17.4004C13.756 17.8188 13.4306 18.0326 12.9466 18.0326C12.5137 18.0326 12.096 17.8312 11.689 17.4103V17.9555H10.4725V10.406H11.689V12.8715C12.082 12.4663 12.4992 12.2613 12.9466 12.2613C13.4306 12.2613 13.7562 12.4749 13.9185 12.8959C14.0003 13.1222 14.0416 13.4942 14.0416 14.0267V16.267ZM18.6334 15.3285H16.2001V16.3256C16.2001 16.8462 16.4034 17.1063 16.8216 17.1063C17.1212 17.1063 17.2956 16.9699 17.3651 16.6975C17.3764 16.6422 17.3924 16.4157 17.3924 16.007H18.6337V16.1557C18.6337 16.4842 18.6187 16.7105 18.6077 16.8123C18.5669 17.0379 18.4711 17.2426 18.3236 17.4229C17.9866 17.8314 17.4874 18.0328 16.8519 18.0328C16.2154 18.0328 15.7308 17.8409 15.3792 17.4568C15.1211 17.1752 14.9886 16.7319 14.9886 16.1341V14.164C14.9886 13.5627 15.1061 13.1229 15.3647 12.8386C15.7161 12.4537 16.2004 12.262 16.8219 12.262C17.4324 12.262 17.9164 12.4537 18.2573 12.8386C18.5122 13.1229 18.634 13.5627 18.634 14.164V15.3285H18.6334Z" fill="#393F47"/>
<path d="M16.8136 13.179C16.407 13.179 16.2031 13.4392 16.2031 13.9592V14.4796H17.4197V13.9592C17.4194 13.4392 17.2161 13.179 16.8136 13.179Z" fill="#393F47"/>
<path d="M12.2982 13.179C12.0978 13.179 11.8947 13.2583 11.6914 13.4268V16.8552C11.8945 17.0257 12.0978 17.1064 12.2982 17.1064C12.6491 17.1064 12.8275 16.8552 12.8275 16.3473V13.9464C12.8275 13.4392 12.6491 13.179 12.2982 13.179Z" fill="#393F47"/>
<path d="M12.9754 8.06916C13.4239 8.06916 13.8905 7.84089 14.38 7.37111V7.99116H15.6097V2.30652H14.38V6.65125C14.1075 6.97384 13.8492 7.13336 13.6032 7.13336C13.4386 7.13336 13.3418 7.05184 13.315 6.89209C13.3 6.85838 13.3 6.733 13.3 6.49172V2.30652H12.0742V6.80153C12.0742 7.20299 12.1153 7.47468 12.1831 7.64676C12.3067 7.93475 12.5795 8.06916 12.9754 8.06916Z" fill="#393F47"/>
<path d="M4.41128 4.90173V7.99117H5.77485V4.90173L7.41514 0.363098H6.03631L5.10595 3.35867L4.13798 0.363098H2.70312C2.99062 1.07018 3.28969 1.78079 3.57719 2.48853C4.01462 3.55235 4.28765 4.3544 4.41128 4.90173Z" fill="#393F47"/>
<path d="M9.24621 8.06931C9.86224 8.06931 10.341 7.87518 10.6805 7.48738C10.9386 7.20292 11.0622 6.75474 11.0622 6.15056V4.15997C11.0622 3.55226 10.9388 3.10805 10.6805 2.82094C10.341 2.43204 9.8625 2.23792 9.24621 2.23792C8.63334 2.23792 8.15488 2.43204 7.81451 2.82094C7.55331 3.10805 7.42969 3.55226 7.42969 4.15997V6.15056C7.42969 6.75474 7.55331 7.20292 7.81451 7.48738C8.15461 7.87518 8.63334 8.06931 9.24621 8.06931ZM8.65938 3.95351C8.65938 3.42755 8.84982 3.16534 9.24621 3.16534C9.64261 3.16534 9.83252 3.42733 9.83252 3.95351V6.34468C9.83252 6.87064 9.64261 7.13373 9.24621 7.13373C8.84982 7.13373 8.65938 6.87064 8.65938 6.34468V3.95351Z" fill="#393F47"/>
</svg>
